HIERARCHY
ROOT Hips
{
  OFFSET 0 0 0
  CHANNELS 6 Xposition Yposition Zposition Zrotation Xrotation Yrotation
  JOINT Spine
  {
    OFFSET 0.00000000 0.00000000 0.00000000
    CHANNELS 3 Zrotation Xrotation Yrotation
    JOINT Spine1
    {
      OFFSET 0.19000000 0.00000000 0.00000000
      CHANNELS 3 Zrotation Xrotation Yrotation
      JOINT Neck
      {
        OFFSET 0.22500000 0.00600000 0.00000000
        CHANNELS 3 Zrotation Xrotation Yrotation
        JOINT Head
        {
          OFFSET 0.14000000 0.00030878 0.00000000
          CHANNELS 3 Zrotation Xrotation Yrotation
          End Site
          {
            OFFSET 0.17000000 0.00000000 0.00000000
          }
        }
      }
      JOINT LeftShoulder
      {
        OFFSET 0.19800000 0.03700000 0.04300000
        CHANNELS 3 Zrotation Xrotation Yrotation
        JOINT LeftArm
        {
          OFFSET 0.08000000 0.00000000 0.00000000
          CHANNELS 3 Zrotation Xrotation Yrotation
          JOINT LeftForeArm
          {
            OFFSET 0.15200000 0.00000000 0.00000000
            CHANNELS 3 Zrotation Xrotation Yrotation
            JOINT LeftHand
            {
              OFFSET 0.17800000 0.00000000 0.00000000
              CHANNELS 3 Zrotation Xrotation Yrotation
              End Site
              {
                OFFSET 0.07200000 0.00000000 0.00000000
              }
            }
          }
        }
      }
      JOINT RightShoulder
      {
        OFFSET 0.19800000 0.03700000 -0.04300000
        CHANNELS 3 Zrotation Xrotation Yrotation
        JOINT RightArm
        {
          OFFSET 0.08000000 0.00000000 0.00151654
          CHANNELS 3 Zrotation Xrotation Yrotation
          JOINT RightForeArm
          {
            OFFSET 0.15200000 0.00000000 0.00000000
            CHANNELS 3 Zrotation Xrotation Yrotation
            JOINT RightHand
            {
              OFFSET 0.17800000 0.00000000 0.00000000
              CHANNELS 3 Zrotation Xrotation Yrotation
              End Site
              {
                OFFSET 0.07200000 0.00000000 0.00000000
              }
            }
          }
        }
      }
    }
  }
  JOINT LeftUpLeg
  {
    OFFSET 0.05984250 -0.07666000 0.04788790
    CHANNELS 3 Zrotation Xrotation Yrotation
    JOINT LeftLeg
    {
      OFFSET 0.16000000 0.00000000 0.00000000
      CHANNELS 3 Zrotation Xrotation Yrotation
      JOINT LeftFoot
      {
        OFFSET 0.18000000 0.00000000 0.00000000
        CHANNELS 3 Zrotation Xrotation Yrotation
        End Site
        {
          OFFSET 0.00000000 -0.10800000 0.00000000
        }
      }
    }
  }
  JOINT RightUpLeg
  {
    OFFSET 0.05984250 -0.07665980 -0.04788790
    CHANNELS 3 Zrotation Xrotation Yrotation
    JOINT RightLeg
    {
      OFFSET 0.16000000 0.00000000 0.00000000
      CHANNELS 3 Zrotation Xrotation Yrotation
      JOINT RightFoot
      {
        OFFSET 0.18000000 0.00000000 0.00000000
        CHANNELS 3 Zrotation Xrotation Yrotation
        End Site
        {
          OFFSET 0.00000000 -0.10800000 0.00000000
        }
      }
    }
  }
  JOINT Tail
  {
    OFFSET 0.06836960 -0.00722574 0.00000000
    CHANNELS 3 Zrotation Xrotation Yrotation
    JOINT Tail1
    {
      OFFSET 0.12000000 0.00000000 0.00000000
      CHANNELS 3 Zrotation Xrotation Yrotation
      End Site
      {
        OFFSET 0.12000000 0.00000000 0.00000000
      }
    }
  }
}
MOTION
Frames:	6
Frame Time:	0.0166667
-5.5999326 0.4915560 -0.2492164 19.0173 -0.88892 3.12884 169.194 -0.947246 11.4837 8.86023 0.0996246 -9.76736 -13.6966 -6.05102 11.1457 -114.539 71.0802 117.754 -100.984 -19.8414 -151.955 127.07 -31.6393 -151.151 -52.7083 18.5605 5.99549 -35.7407 9.74406 -25.653 72.4746 -38.2585 52.2184 36.8667 0.822329 -52.7977 -63.8849 -20.6362 -6.7209 -25.0828 -1.15165 7.75284 -116.324 -0.915623 -13.8114 88.6073 7.31616 0.292529 61.4109 -2.34606 -4.67824 -126.248 4.16641 2.40094 114.665 -0.693167 -3.26764 24.6077 -1.72248 -3.00843 52.4608 -25.3963 62.2878 23.352 76.1271 -13.1628 
-5.6692799 0.4933870 -0.2596341 16.0906 -1.99045 2.35838 170.269 -0.413478 10.7036 11.8367 0.28911 -9.64806 -15.3841 -7.62438 11.4413 -116.379 73.2914 113.537 -101.721 -20.9085 -150.979 132.994 -35.5548 -144.64 -40.5704 12.8141 0.992879 -22.1227 3.2214 -13.9946 72.6163 -36.9981 50.4506 40.8993 -10.7245 -51.5602 -67.7436 -20.7045 -5.52015 -28.4903 -5.67099 18.3827 -121.699 0.572961 -15.5645 102.156 9.06444 -0.631129 53.2088 -2.12307 -4.34319 -131.49 1.19184 2.5158 119.456 -1.50143 -3.21776 18.9373 -2.21634 -3.5654 91.8343 -28.5252 75.6992 168.74 62.7103 -150.93 
-5.7380095 0.4960410 -0.2700573 11.7132 -3.39797 1.92277 174.882 0.32656 9.06278 10.3858 0.597128 -7.40596 -16.9472 -8.96305 10.1426 -114.534 75.0132 109.928 -103.06 -22.6375 -150.277 144.412 -31.772 -132.266 -16.6801 5.80279 -4.64977 -10.4741 -0.126091 -1.32007 73.6713 -33.7923 47.5313 43.6257 -24.8271 -46.4733 -68.6365 -22.0943 -3.65358 -30.0974 -7.84815 23.6098 -126.72 3.02693 -15.6355 114.989 11.2533 -1.86774 43.3457 -1.87995 -3.76546 -135.746 -1.44786 3.20589 120.354 -2.24589 -3.26037 16.0741 -2.57046 -4.10747 134.306 -28.7202 87.8202 179.002 20.7971 -146.907 
-5.8051704 0.5000880 -0.2802222 5.46888 -4.83997 1.95652 -177.069 0.81489 7.5321 5.66374 0.537409 -4.53855 -17.1285 -10.3417 8.76582 -112.635 75.5826 106.326 -104.243 -24.1537 -149.785 150.415 -30.4786 -124.819 -9.19874 -8.56146 -5.23143 6.18274 1.45565 5.82918 77.123 -27.2667 44.5629 44.9633 -34.4427 -40.5458 -64.6688 -22.7336 -2.37122 -31.2563 -8.36927 24.9885 -130.306 6.41924 -14.9292 125.316 14.4309 -2.59138 33.3221 -1.74263 -3.15673 -137.147 -3.04647 4.75965 117.329 -1.86567 -3.29567 14.6594 -2.73196 -4.48316 171.577 -27.2776 97.2585 -170.478 -11.7341 -125.349 
-5.8706836 0.5024710 -0.2895549 -1.84205 -5.78103 1.38134 -170.325 0.550072 4.20863 4.59509 -0.316226 0.683193 -19.1853 -10.8476 6.31783 -111.02 74.5541 104.845 -105.982 -27.4887 -145.913 147.822 -35.9715 -119.912 -27.9401 -31.4253 -2.87829 32.5201 5.08355 -3.24631 78.9285 -23.5101 41.2265 46.573 -40.0411 -36.4042 -57.781 -20.6797 -0.606472 -28.4316 -6.03018 20.7727 -132.162 9.84151 -14.1397 132.108 19.8112 -2.78984 24.4743 -1.63987 -2.55875 -136.912 -4.52238 5.93124 111.323 -1.8719 -3.41977 16.5807 -2.62245 -4.41161 -171.197 -26.275 100.13 -159.954 -14.3564 -96.5568 
-5.9358659 0.5019710 -0.2979420 -9.15929 -5.97349 0.18317 -165.639 0.121634 -0.374592 6.18841 -0.699383 6.64165 -21.5532 -10.7032 3.86428 -109.708 73.5291 104.441 -108.323 -32.324 -141.236 142.014 -39.7812 -115.624 -46.5838 -53.8321 2.59413 43.347 2.20742 -22.7907 80.0806 -21.5376 40.0014 45.6631 -41.8119 -36.5434 -47.7141 -17.511 1.53235 -22.8484 -1.91545 10.9625 -133.536 12.169 -13.4815 135.58 24.0809 -2.78983 18.553 -1.57454 -2.18822 -135.759 -5.91035 5.90061 103.117 -1.60826 -3.44242 21.8108 -2.35815 -4.08359 174.107 -28.3494 93.2218 -158.103 10.6054 -85.4982 
